<?xml version="1.0" encoding="iso-8859-1"?>
<!-- Uploaded to: SVG Repo, www.svgrepo.com, Generator: SVG Repo Mixer Tools -->
<svg fill="#000000" height="800px" width="800px" version="1.1" id="Layer_1" xmlns="http://www.w3.org/2000/svg" xmlns:xlink="http://www.w3.org/1999/xlink" 
	 viewBox="0 0 512 512" xml:space="preserve">
<g transform="translate(1 1)">
	<g>
		<g>
			<path d="M122.586,118.228h79.448c5.297,0,8.828-3.531,8.828-8.828c0-5.297-3.531-8.828-8.828-8.828h-79.448
				c-5.297,0-8.828,3.531-8.828,8.828C113.759,114.697,117.29,118.228,122.586,118.228z"/>
			<path d="M87.276,162.366h114.759c5.297,0,8.828-3.531,8.828-8.828c0-5.297-3.531-8.828-8.828-8.828H87.276
				c-5.297,0-8.828,3.531-8.828,8.828C78.448,158.835,81.979,162.366,87.276,162.366z"/>
			<path d="M87.276,206.504h79.448c5.297,0,8.828-3.531,8.828-8.828c0-5.297-3.531-8.828-8.828-8.828H87.276
				c-5.297,0-8.828,3.531-8.828,8.828C78.448,202.973,81.979,206.504,87.276,206.504z"/>
			<path d="M202.034,232.987h-79.448c-5.297,0-8.828,3.531-8.828,8.828c0,5.297,3.531,8.828,8.828,8.828h79.448
				c5.297,0,8.828-3.531,8.828-8.828C210.862,236.518,207.331,232.987,202.034,232.987z"/>
			<path d="M87.276,294.78h114.759c5.297,0,8.828-3.531,8.828-8.828s-3.531-8.828-8.828-8.828H87.276
				c-5.297,0-8.828,3.531-8.828,8.828S81.979,294.78,87.276,294.78z"/>
			<path d="M307.966,162.366h79.448c5.297,0,8.828-3.531,8.828-8.828c0-5.297-3.531-8.828-8.828-8.828h-79.448
				c-5.297,0-8.828,3.531-8.828,8.828C299.138,158.835,302.669,162.366,307.966,162.366z"/>
			<path d="M307.966,118.228h123.586c5.297,0,8.828-3.531,8.828-8.828c0-5.297-3.531-8.828-8.828-8.828H307.966
				c-5.297,0-8.828,3.531-8.828,8.828C299.138,114.697,302.669,118.228,307.966,118.228z"/>
			<path d="M431.552,277.125h-88.276c-5.297,0-8.828,3.531-8.828,8.828s3.531,8.828,8.828,8.828h88.276
				c5.297,0,8.828-3.531,8.828-8.828S436.848,277.125,431.552,277.125z"/>
			<path d="M307.966,250.642h79.448c5.297,0,8.828-3.531,8.828-8.828c0-5.297-3.531-8.828-8.828-8.828h-79.448
				c-5.297,0-8.828,3.531-8.828,8.828C299.138,247.111,302.669,250.642,307.966,250.642z"/>
			<path d="M307.966,206.504h123.586c5.297,0,8.828-3.531,8.828-8.828c0-5.297-3.531-8.828-8.828-8.828H307.966
				c-5.297,0-8.828,3.531-8.828,8.828C299.138,202.973,302.669,206.504,307.966,206.504z"/>
			<path d="M484.517,38.78h-15.89c-69.714-23.528-145.443-23.813-213.613-0.04c-67.409-23.773-146.543-23.488-213.642,0.04h-15.89
				H-1v344.276v17.655v26.483h317.793v61.793l44.138-33.545l44.138,33.545v-61.793H511v-26.483v-17.655V38.78H484.517z
				 M316.793,383.056h-35.31c12.359-3.531,23.834-7.062,35.31-9.71V383.056z M227.235,383.056H46.669
				C98.797,360.151,159.412,360.585,227.235,383.056z M405.069,366.293c0.107,0.011,0.215,0.023,0.322,0.034
				c21.06,2.662,40.375,7.942,57.94,15.847l1.766,0.883h-60.028V366.293z M463.331,55.553l1.766,0.883h1.766v307.2
				c-26.162-11.212-55.06-16.755-86.6-16.545c-18.036-0.051-36.966,1.93-56.407,5.952l-0.563,0.141
				c-19.042,3.779-38.864,9.307-59.465,16.632V53.787C328.269,33.484,399.772,33.484,463.331,55.553z M45.786,55.553
				c62.676-22.069,136.828-22.952,200.386-1.766v316.028c-3.095-1.054-6.164-2.061-9.22-3.045
				c-70.021-23.909-133.516-25.794-188.58-4.362c-1.752,0.679-3.497,1.382-5.235,2.11V56.435h1.766L45.786,55.553z M16.655,56.435
				h8.828v326.621h-8.828V56.435z M16.655,409.539v-8.828h300.138v8.828H16.655z M387.414,453.677l-26.483-19.421l-26.483,19.421
				v-26.483v-26.483v-17.655v-13.241c18.538-3.531,36.193-4.414,52.966-4.414v17.655v17.655v26.483V453.677z M493.345,409.539
				h-88.276v-8.828h88.276V409.539z M484.517,383.056V56.435h8.828v326.621H484.517z"/>
		</g>
	</g>
</g>
</svg>